# xmcd
#
# Track frame offsets:
#	225
#	9812
#	21568
#	33922
#	44469
#	55906
#	67472
#	74725
#	83975
#	95309
#	114462
#	129498
#	139225
#	150873
#	163157
#	175336
#	186046
#	197180
#	204823
#	214305
#
# Disc length: 3038 seconds
#
# Revision: 1
# Processed by: cddbd v1.4PL0 Copyright (c) Steve Scherf et al.
# Submitted via: audiograbber 1.80
#
DISCID=230bdb14
DTITLE=Dolly Parton - Dolly Parton and Country Ladies
DYEAR=1900
DGENRE=
TTITLE0=Release Me
TTITLE1=Two Little Orphans
TTITLE2=Little Blossom
TTITLE3=It Wasn't God Who Made Honky Tonk Angels
TTITLE4=Makin' Believe
TTITLE5=Letter To Heaven
TTITLE6=Puppy Love (live)
TTITLE7=A Girl Left Alone (live)
TTITLE8=Apple Jack (live)
TTITLE9=Light Of A Clear Blue Morning (live)
TTITLE10=I Will Always Love You (live)
TTITLE11=I Don't Know Why I Can't Get You (live)
TTITLE12=Me And Little Andy (live)
TTITLE13=Is It Cool To Know Sombody Loves You (live)
TTITLE14=Higher And Higher (live)
TTITLE15=It's All I Can Do From Falling In Love (live)
TTITLE16=Jolene (live)
TTITLE17=My Tennessee Mountain Home (live)
TTITLE18=Do I Ever Cross Your Mind (live)
TTITLE19=Cost Of Many Colors (live)
EXTD=
EXTT0=
EXTT1=
EXTT2=
EXTT3=
EXTT4=
EXTT5=
EXTT6=
EXTT7=
EXTT8=
EXTT9=
EXTT10=
EXTT11=
EXTT12=
EXTT13=
EXTT14=
EXTT15=
EXTT16=
EXTT17=
EXTT18=
EXTT19=
PLAYORDER=
